<?xml version="1.0" encoding="UTF-8" standalone="no"?><!DOCTYPE svg PUBLIC "-//W3C//DTD SVG 1.1//EN" "http://www.w3.org/Graphics/SVG/1.1/DTD/svg11.dtd"><svg width="100%" height="100%" viewBox="0 0 1097 276" version="1.1" xmlns="http://www.w3.org/2000/svg" xmlns:xlink="http://www.w3.org/1999/xlink" xml:space="preserve" xmlns:serif="http://www.serif.com/" style="fill-rule:evenodd;clip-rule:evenodd;stroke-linejoin:round;stroke-miterlimit:2;"><g><path d="M0.114,247.283c0.222,2.138 2.024,3.762 4.174,3.762c14.792,0.004 72.279,0.004 84.819,0.004c1.378,0 2.578,-0.939 2.911,-2.276c1.069,-4.08 4.378,-13.047 13.975,-22.027c12.454,-11.654 108.14,-53.805 133.987,-79.289c12.946,-12.766 30.542,-41.481 24.717,-74.722c-4.48,-25.568 -25.889,-54.835 -35.535,-66.984c-0.764,-0.95 -2.029,-1.339 -3.195,-0.983c-1.166,0.355 -1.998,1.384 -2.102,2.599c-1.437,14.941 -6.24,49.306 -21.104,71.903c-21.128,32.117 -36.859,50.4 -80.688,68.897c-44.116,18.617 -70.848,34.429 -92.393,50.782c-11.669,8.858 -23.456,24.534 -25.557,28.965c-4.074,8.591 -4.372,15.418 -4.009,19.369Z" style="fill:url(#_Linear1);"/><path d="M6.817,251.045l-4.401,-0.002c-0.972,0 -1.81,-0.681 -2.009,-1.632c-0.611,-3.241 -1.229,-11.069 3.716,-21.497c2.101,-4.431 13.888,-20.107 25.557,-28.965c21.545,-16.353 48.277,-32.165 92.393,-50.782c43.829,-18.497 59.56,-36.78 80.688,-68.897c16.285,-24.756 20.492,-63.637 21.43,-75.627c0.039,-0.598 0.437,-1.112 1.006,-1.299c0.57,-0.186 1.195,-0.008 1.58,0.451c2.161,2.633 19.302,69.282 3.017,94.038c-21.128,32.117 -43.28,49.32 -98.642,73.04c-51.55,22.086 -114.358,68.105 -124.335,81.172Z" style="fill:url(#_Linear2);"/><path d="M6.817,251.045l-4.401,-0.002c-0.972,0 -1.81,-0.681 -2.009,-1.632c-0.611,-3.241 -1.229,-11.069 3.716,-21.497c2.101,-4.431 13.888,-20.107 25.557,-28.965c21.545,-16.353 48.277,-32.165 92.393,-50.782c43.829,-18.497 59.56,-36.78 80.688,-68.897c16.285,-24.756 20.492,-63.637 21.43,-75.627c0.039,-0.598 0.437,-1.112 1.006,-1.299c0.57,-0.186 1.195,-0.008 1.58,0.451c2.161,2.633 17.6,61.704 3.017,94.038c-15.807,35.044 -43.28,49.32 -98.642,73.04c-51.55,22.086 -114.358,68.105 -124.335,81.172Z" style="fill:url(#_Linear3);"/><path d="M201.615,194.02c0.393,-0.222 0.866,-0.251 1.283,-0.079c0.416,0.172 0.731,0.525 0.854,0.959c2.744,9.702 4.524,17.943 4.589,23.812c0.108,9.832 -3.338,25.703 -4.496,30.746c-0.217,0.931 -1.047,1.59 -2.003,1.59c-11.184,0.001 -76.534,0.001 -89.69,0.001c-0.507,0 -0.978,-0.261 -1.247,-0.691c-0.268,-0.43 -0.296,-0.968 -0.074,-1.423c1.357,-2.574 3.604,-5.891 7.234,-9.287c4.526,-4.236 21.386,-12.487 41.211,-22.847c13.555,-7.084 28.368,-14.912 42.339,-22.781Z" style="fill:url(#_Linear4);"/><path d="M171.134,233.965c-26.331,14.76 -58.982,17.084 -58.982,17.084c-0.507,0 -0.978,-0.261 -1.247,-0.691c-0.268,-0.43 -0.296,-0.968 -0.074,-1.423c1.357,-2.574 3.604,-5.891 7.234,-9.287c4.526,-4.236 21.386,-12.487 41.211,-22.847c13.555,-7.084 28.368,-14.912 42.339,-22.781c0.393,-0.222 1.3,22.131 -30.481,39.945Z" style="fill:url(#_Linear5);"/><path d="M85.455,145.226c-0.339,-0.028 -0.671,-0.14 -0.963,-0.333c-0.565,-0.373 -0.911,-1 -0.925,-1.677c-0.063,-4.749 0.211,-9.598 0.581,-14.366c1.416,-18.299 14.937,-36.654 21.163,-44.75c20.501,-26.661 78.663,-65.996 96.132,-77.28c0.939,-0.605 2.141,-0.619 3.093,-0.036c0.953,0.583 1.487,1.66 1.376,2.771c-1.572,14.556 -5.859,41.681 -17.912,60.004c-19.084,29.01 -33.209,45.623 -72.797,62.329c-10.878,4.591 -20.739,9.023 -29.748,13.338Z" style="fill:url(#_Linear6);"/><path d="M132.922,78.576c-29.822,31.912 -41.025,64.261 -46.524,66.506c-0.628,0.255 -1.34,0.184 -1.906,-0.189c-0.565,-0.373 -0.911,-1 -0.925,-1.677c-0.063,-4.749 0.211,-9.598 0.581,-14.366c1.416,-18.299 14.937,-36.654 21.163,-44.75c24.182,-31.447 83.706,-69.566 98.739,-78.959c0.559,-0.344 1.279,-0.274 1.762,0.17c0.483,0.444 0.613,1.156 0.317,1.742c-2.068,4.073 -50.797,47.542 -73.207,71.523Z" style="fill:url(#_Linear7);"/></g><g><path d="M322.796,226.452c0,3.601 -0.623,6.949 -1.87,10.043c-1.247,3.094 -2.99,5.772 -5.23,8.035c-2.239,2.263 -4.906,4.029 -8,5.299c-3.094,1.27 -6.465,1.905 -10.113,1.905l-66.01,0l0,-18.009l66.01,0c2.217,0 3.948,-0.635 5.195,-1.905c1.247,-1.27 1.87,-3.06 1.87,-5.368l0,-74.046l18.148,0l0,74.046Z" style="fill:#6e6e6e;fill-rule:nonzero;"/><path d="M418.384,226.936c0,2.494 -0.439,5.184 -1.316,8.07c-0.878,2.886 -2.298,5.564 -4.26,8.035c-1.963,2.47 -4.526,4.537 -7.689,6.199c-3.163,1.663 -7.007,2.494 -11.533,2.494l-32.486,0c-2.493,0 -5.183,-0.439 -8.069,-1.316c-2.886,-0.878 -5.564,-2.298 -8.035,-4.26c-2.47,-1.963 -4.537,-4.526 -6.199,-7.689c-1.663,-3.163 -2.494,-7.007 -2.494,-11.533c0,-2.493 0.439,-5.195 1.316,-8.104c0.878,-2.909 2.297,-5.599 4.26,-8.069c1.963,-2.471 4.525,-4.537 7.689,-6.2c3.163,-1.662 7.007,-2.493 11.532,-2.493l32.486,0l0,17.178l-32.486,0c-2.447,0 -4.34,0.75 -5.679,2.251c-1.34,1.501 -2.009,3.359 -2.009,5.576c0,2.355 0.773,4.191 2.32,5.507c1.547,1.316 3.383,1.974 5.507,1.974l32.347,0c2.448,0 4.341,-0.739 5.68,-2.217c1.339,-1.477 2.009,-3.325 2.009,-5.541l0,-25.144c0,-2.355 -0.727,-4.225 -2.182,-5.61c-1.455,-1.386 -3.29,-2.078 -5.507,-2.078l-39.551,0l0,-17.109l39.551,0c2.494,0 5.184,0.439 8.07,1.316c2.886,0.877 5.564,2.297 8.035,4.26c2.47,1.962 4.537,4.525 6.199,7.688c1.662,3.164 2.494,7.008 2.494,11.533l0,25.282Z" style="fill:#6e6e6e;fill-rule:nonzero;"/><path d="M523.114,176.857c-2.032,6.326 -4.41,12.56 -7.134,18.702c-2.725,6.141 -5.853,11.994 -9.386,17.559c-3.532,5.564 -7.481,10.713 -11.844,15.446c-4.364,4.733 -9.19,8.82 -14.477,12.26c-5.287,3.441 -11.036,6.142 -17.247,8.104c-6.211,1.963 -12.942,2.944 -20.191,2.944c-1.247,0 -2.425,-0.231 -3.533,-0.692c-1.108,-0.462 -2.078,-1.097 -2.909,-1.905c-0.831,-0.808 -1.478,-1.755 -1.94,-2.84c-0.461,-1.085 -0.692,-2.251 -0.692,-3.498l0,-66.08l18.009,0l0,56.313c4.387,0 8.6,-0.946 12.641,-2.84c4.041,-1.893 7.862,-4.398 11.464,-7.515c3.601,-3.117 6.938,-6.661 10.009,-10.632c3.07,-3.972 5.806,-8.047 8.208,-12.226c2.401,-4.179 4.444,-8.277 6.13,-12.295c1.685,-4.017 2.943,-7.619 3.775,-10.805l19.117,0Z" style="fill:#6e6e6e;fill-rule:nonzero;"/><path d="M604.571,226.936c0,2.494 -0.438,5.184 -1.316,8.07c-0.877,2.886 -2.297,5.564 -4.26,8.035c-1.962,2.47 -4.525,4.537 -7.688,6.199c-3.163,1.663 -7.008,2.494 -11.533,2.494l-32.486,0c-2.494,0 -5.183,-0.439 -8.069,-1.316c-2.887,-0.878 -5.565,-2.298 -8.035,-4.26c-2.471,-1.963 -4.537,-4.526 -6.2,-7.689c-1.662,-3.163 -2.493,-7.007 -2.493,-11.533c0,-2.493 0.438,-5.195 1.316,-8.104c0.877,-2.909 2.297,-5.599 4.26,-8.069c1.962,-2.471 4.525,-4.537 7.688,-6.2c3.163,-1.662 7.008,-2.493 11.533,-2.493l32.486,0l0,17.178l-32.486,0c-2.447,0 -4.341,0.75 -5.68,2.251c-1.339,1.501 -2.008,3.359 -2.008,5.576c0,2.355 0.773,4.191 2.32,5.507c1.547,1.316 3.382,1.974 5.507,1.974l32.347,0c2.447,0 4.341,-0.739 5.68,-2.217c1.339,-1.477 2.008,-3.325 2.008,-5.541l0,-25.144c0,-2.355 -0.727,-4.225 -2.181,-5.61c-1.455,-1.386 -3.291,-2.078 -5.507,-2.078l-39.551,0l0,-17.109l39.551,0c2.494,0 5.183,0.439 8.069,1.316c2.887,0.877 5.565,2.297 8.035,4.26c2.471,1.962 4.537,4.525 6.2,7.688c1.662,3.164 2.493,7.008 2.493,11.533l0,25.282Z" style="fill:#6e6e6e;fill-rule:nonzero;"/><path d="M717.406,222.503c0,3.556 -0.45,6.754 -1.351,9.594c-0.9,2.84 -2.089,5.345 -3.567,7.515c-1.478,2.17 -3.209,4.018 -5.195,5.541c-1.986,1.524 -4.04,2.771 -6.165,3.741c-2.124,0.97 -4.283,1.685 -6.476,2.147c-2.193,0.462 -4.26,0.693 -6.199,0.693l-69.474,0l0,-18.009l69.474,0c3.463,0 6.153,-1.016 8.069,-3.048c1.917,-2.032 2.875,-4.756 2.875,-8.174c0,-1.662 -0.254,-3.186 -0.762,-4.571c-0.508,-1.386 -1.235,-2.586 -2.182,-3.602c-0.947,-1.016 -2.101,-1.801 -3.463,-2.355c-1.363,-0.554 -2.875,-0.831 -4.537,-0.831l-41.422,0c-2.909,0 -6.049,-0.52 -9.42,-1.559c-3.371,-1.039 -6.499,-2.713 -9.385,-5.022c-2.886,-2.308 -5.288,-5.333 -7.204,-9.073c-1.916,-3.741 -2.875,-8.312 -2.875,-13.715c0,-5.403 0.959,-9.963 2.875,-13.68c1.916,-3.718 4.318,-6.742 7.204,-9.074c2.886,-2.332 6.014,-4.018 9.385,-5.057c3.371,-1.039 6.511,-1.558 9.42,-1.558l61.301,0l0,18.009l-61.301,0c-3.417,0 -6.083,1.039 -8,3.117c-1.916,2.078 -2.874,4.826 -2.874,8.243c0,3.463 0.958,6.199 2.874,8.208c1.917,2.009 4.583,3.013 8,3.013l41.56,0c1.94,0.046 3.995,0.312 6.165,0.797c2.17,0.484 4.329,1.235 6.476,2.251c2.148,1.016 4.191,2.297 6.13,3.844c1.94,1.547 3.66,3.406 5.161,5.576c1.5,2.17 2.69,4.664 3.567,7.481c0.877,2.816 1.316,6.003 1.316,9.558Z" style="fill:#6e6e6e;fill-rule:nonzero;"/><path d="M802.88,251.734l-48.832,0c-2.494,0 -5.218,-0.439 -8.174,-1.316c-2.955,-0.878 -5.691,-2.321 -8.208,-4.329c-2.516,-2.009 -4.617,-4.618 -6.303,-7.828c-1.685,-3.209 -2.528,-7.146 -2.528,-11.809l0,-24.382c0,-1.709 0.196,-3.51 0.589,-5.403c0.392,-1.893 1.004,-3.775 1.835,-5.645c0.831,-1.87 1.905,-3.66 3.221,-5.368c1.316,-1.709 2.909,-3.21 4.779,-4.503c1.871,-1.293 4.029,-2.332 6.477,-3.117c2.447,-0.785 5.218,-1.177 8.312,-1.177l48.832,0l0,18.009l-48.832,0c-2.355,0 -4.145,0.6 -5.368,1.801c-1.224,1.201 -1.836,3.048 -1.836,5.541l0,24.244c0,2.355 0.623,4.156 1.87,5.402c1.247,1.247 3.071,1.871 5.472,1.871l48.694,0l0,18.009Z" style="fill:#6e6e6e;fill-rule:nonzero;"/><path d="M883.299,194.866l-40.521,0c-2.448,0 -4.295,0.612 -5.541,1.836c-1.247,1.223 -1.871,3.013 -1.871,5.368l0,49.664l-18.009,0l0,-49.664c0,-3.094 0.393,-5.865 1.178,-8.312c0.785,-2.448 1.835,-4.606 3.151,-6.476c1.316,-1.871 2.829,-3.464 4.537,-4.78c1.709,-1.316 3.498,-2.39 5.368,-3.221c1.871,-0.831 3.764,-1.443 5.68,-1.835c1.917,-0.393 3.706,-0.589 5.368,-0.589l40.66,0l0,18.009Z" style="fill:#6e6e6e;fill-rule:nonzero;"/><path d="M913.429,161.48l-18.009,0l0,-16.278l18.009,0l0,16.278Zm0,90.254l-18.009,0l0,-74.877l18.009,0l0,74.877Z" style="fill:#6e6e6e;fill-rule:nonzero;"/><path d="M1013.24,226.452c0,3.093 -0.392,5.876 -1.177,8.346c-0.785,2.471 -1.824,4.641 -3.117,6.511c-1.293,1.87 -2.794,3.463 -4.503,4.78c-1.708,1.316 -3.498,2.389 -5.368,3.22c-1.87,0.832 -3.752,1.443 -5.645,1.836c-1.893,0.392 -3.694,0.589 -5.403,0.589l-32.486,0l0,-18.009l32.486,0c2.401,0 4.202,-0.624 5.403,-1.871c1.201,-1.246 1.801,-3.047 1.801,-5.402l0,-24.244c0,-2.493 -0.612,-4.34 -1.836,-5.541c-1.223,-1.201 -3.013,-1.801 -5.368,-1.801l-32.347,0c-2.448,0 -4.295,0.612 -5.541,1.836c-1.247,1.223 -1.871,3.013 -1.871,5.368l0,73.076l-18.009,0l0,-73.076c0,-3.094 0.393,-5.865 1.178,-8.312c0.785,-2.448 1.835,-4.606 3.151,-6.476c1.316,-1.871 2.829,-3.464 4.537,-4.78c1.709,-1.316 3.498,-2.39 5.368,-3.221c1.87,-0.831 3.764,-1.443 5.68,-1.835c1.917,-0.393 3.706,-0.589 5.368,-0.589l32.486,0c3.094,0 5.865,0.392 8.312,1.177c2.447,0.785 4.606,1.824 6.476,3.117c1.871,1.293 3.464,2.794 4.78,4.503c1.316,1.708 2.39,3.498 3.221,5.368c0.831,1.87 1.443,3.752 1.835,5.645c0.393,1.893 0.589,3.694 0.589,5.403l0,24.382Z" style="fill:#6e6e6e;fill-rule:nonzero;"/><path d="M1096.36,194.866l-31.447,0l0,56.868l-18.217,0l0,-56.868l-23.412,0l0,-18.009l23.412,0l0,-24.451l18.217,0l0,24.451l31.447,0l0,18.009Z" style="fill:#6e6e6e;fill-rule:nonzero;"/></g><g><path d="M335.874,136.438l-39.554,0c-1.012,0 -2.101,-0.12 -3.268,-0.359c-1.166,-0.239 -2.319,-0.611 -3.458,-1.117c-1.138,-0.506 -2.227,-1.16 -3.268,-1.961c-1.04,-0.801 -1.96,-1.771 -2.762,-2.91c-0.801,-1.138 -1.44,-2.459 -1.918,-3.963c-0.478,-1.504 -0.717,-3.198 -0.717,-5.082l0,-29.686c0,-1.012 0.119,-2.102 0.358,-3.268c0.239,-1.167 0.612,-2.32 1.118,-3.458c0.506,-1.139 1.166,-2.228 1.982,-3.268c0.815,-1.04 1.792,-1.961 2.93,-2.762c1.139,-0.801 2.453,-1.441 3.943,-1.919c1.49,-0.478 3.177,-0.717 5.06,-0.717l39.554,0l0,10.964l-39.554,0c-1.433,0 -2.53,0.38 -3.289,1.139c-0.759,0.759 -1.138,1.883 -1.138,3.373l0,29.602c0,1.406 0.386,2.495 1.159,3.268c0.773,0.773 1.863,1.16 3.268,1.16l39.554,0l0,10.964Z" style="fill:#a0a0a0;fill-rule:nonzero;"/><path d="M396.259,111.727l-34.662,0l0,-11.048l34.662,0l0,11.048Zm4.892,-24.795l-43.94,0l0,49.506l-10.963,0l0,-54.946c0,-0.759 0.14,-1.476 0.421,-2.15c0.282,-0.675 0.668,-1.265 1.16,-1.771c0.492,-0.506 1.075,-0.9 1.75,-1.181c0.675,-0.281 1.406,-0.422 2.193,-0.422l49.379,0l0,10.964Z" style="fill:#a0a0a0;fill-rule:nonzero;"/><path d="M487.217,75.968l-10.121,56.675c-0.225,1.124 -0.731,2.094 -1.518,2.909c-0.787,0.815 -1.743,1.336 -2.867,1.56c-1.153,0.197 -2.242,0.071 -3.268,-0.379c-1.026,-0.45 -1.835,-1.153 -2.425,-2.109l-20.072,-32.975l-20.114,32.975c-0.478,0.816 -1.132,1.448 -1.961,1.898c-0.83,0.45 -1.722,0.675 -2.678,0.675c-1.321,0 -2.488,-0.422 -3.5,-1.265c-1.012,-0.844 -1.63,-1.94 -1.855,-3.289l-10.205,-56.675l11.132,0l7.253,39.934l17.289,-27.578c0.478,-0.816 1.132,-1.448 1.961,-1.898c0.829,-0.45 1.722,-0.675 2.678,-0.675c0.956,0 1.841,0.225 2.656,0.675c0.816,0.45 1.49,1.082 2.025,1.898l17.204,27.578l7.253,-39.934l11.133,0Z" style="fill:#a0a0a0;fill-rule:nonzero;"/></g><defs><linearGradient id="_Linear1" x1="0" y1="0" x2="1" y2="0" gradientUnits="userSpaceOnUse" gradientTransform="matrix(-165.749,188.739,-178.235,-156.525,223.814,58.7145)"><stop offset="0" style="stop-color:#ff0010;stop-opacity:1"/><stop offset="1" style="stop-color:#990009;stop-opacity:1"/></linearGradient><linearGradient id="_Linear2" x1="0" y1="0" x2="1" y2="0" gradientUnits="userSpaceOnUse" gradientTransform="matrix(-206.874,287.153,-301.741,-217.384,228.825,-5.16083)"><stop offset="0" style="stop-color:#ff4141;stop-opacity:1"/><stop offset="1" style="stop-color:#cd0000;stop-opacity:1"/></linearGradient><linearGradient id="_Linear3" x1="0" y1="0" x2="1" y2="0" gradientUnits="userSpaceOnUse" gradientTransform="matrix(-206.874,287.153,-301.741,-217.384,228.825,-5.16083)"><stop offset="0" style="stop-color:#ff4141;stop-opacity:1"/><stop offset="1" style="stop-color:#cd0000;stop-opacity:1"/></linearGradient><linearGradient id="_Linear4" x1="0" y1="0" x2="1" y2="0" gradientUnits="userSpaceOnUse" gradientTransform="matrix(97.6614,0,0,57.2193,110.682,222.44)"><stop offset="0" style="stop-color:#ff4141;stop-opacity:1"/><stop offset="1" style="stop-color:#cd0000;stop-opacity:1"/></linearGradient><linearGradient id="_Linear5" x1="0" y1="0" x2="1" y2="0" gradientUnits="userSpaceOnUse" gradientTransform="matrix(91.0398,0,0,57.0313,110.682,222.534)"><stop offset="0" style="stop-color:#ff0010;stop-opacity:1"/><stop offset="1" style="stop-color:#990009;stop-opacity:1"/></linearGradient><linearGradient id="_Linear6" x1="0" y1="0" x2="1" y2="0" gradientUnits="userSpaceOnUse" gradientTransform="matrix(-65.949,85.4405,-102.148,-78.8448,201.362,24.6381)"><stop offset="0" style="stop-color:#ff0010;stop-opacity:1"/><stop offset="1" style="stop-color:#990009;stop-opacity:1"/></linearGradient><linearGradient id="_Linear7" x1="0" y1="0" x2="1" y2="0" gradientUnits="userSpaceOnUse" gradientTransform="matrix(-91.2871,178.049,-212.865,-109.137,147.028,-9.66246)"><stop offset="0" style="stop-color:#ff4141;stop-opacity:1"/><stop offset="1" style="stop-color:#cd0000;stop-opacity:1"/></linearGradient></defs></svg>